<?xml version="1.0" encoding="utf-8"?>
<!-- Generator: Adobe Illustrator 22.0.0, SVG Export Plug-In . SVG Version: 6.00 Build 0)  -->
<svg version="1.1" id="Слой_1" xmlns="http://www.w3.org/2000/svg" xmlns:xlink="http://www.w3.org/1999/xlink" x="0px" y="0px"
	 viewBox="0 0 1000 1000" style="enable-background:new 0 0 1000 1000;" xml:space="preserve">
<style type="text/css">
	.st0{fill:#cdd2d8;}
</style>
<path class="st0" d="M500,0c-2.5,0-5,0-7.4,0.1c-0.8,0-1.6,0-2.4,0c-1.7,0-3.3,0.1-5,0.1c-1,0-1.9,0.1-2.8,0.1
	c-1.5,0.1-3,0.1-4.6,0.2c-1,0-2,0.1-3,0.1c-1.5,0.1-3,0.2-4.4,0.2c-1,0.1-2,0.1-3,0.2c-1.5,0.1-2.9,0.2-4.4,0.3
	c-1,0.1-2,0.1-2.9,0.2c-1.5,0.1-3,0.2-4.5,0.4c-0.9,0.1-1.8,0.2-2.8,0.2c-1.6,0.2-3.3,0.3-4.9,0.5c-0.8,0.1-1.6,0.2-2.4,0.2
	c-2,0.2-4,0.4-6,0.7c-0.4,0-0.8,0.1-1.2,0.1c-2.4,0.3-4.9,0.6-7.3,1c-0.4,0.1-0.9,0.1-1.3,0.2c-1.9,0.3-3.9,0.6-5.8,0.9
	c-0.8,0.1-1.6,0.3-2.4,0.4c-1.6,0.2-3.1,0.5-4.7,0.8c-0.9,0.2-1.9,0.3-2.8,0.5c-1.4,0.2-2.9,0.5-4.3,0.8c-1,0.2-2,0.4-3,0.6
	c-1.4,0.3-2.7,0.5-4.1,0.8c-1,0.2-2.1,0.4-3.1,0.6c-1.3,0.3-2.6,0.5-3.9,0.8c-1.1,0.2-2.2,0.5-3.2,0.7c-0.4,0.1-0.7,0.2-1.1,0.2v0
	v187.3V295v40.3V500c0,60.1,48.7,108.8,108.8,108.8c1.2,0,2.5,0,3.7-0.1c0.2,0,0.5,0,0.7,0c1,0,2.1-0.1,3.1-0.2c0.2,0,0.4,0,0.6,0v0
	c56.3-4.1,100.7-51.1,100.7-108.5c0-57.4-44.4-104.4-100.7-108.5v-88c104.4,4.8,187.5,91,187.5,196.5
	c0,108.7-88.1,196.8-196.8,196.8S302.1,608.7,302.1,500c0-3.1,0.1-6.2,0.2-9.3h-0.2V378V248.4V40.7c-0.4,0.2-0.8,0.3-1.2,0.5
	c-11,4.8-21.8,10-32.4,15.5c0,0-0.6,222.9-1.2,223.6v209.5c0.1,0.1,0.1,0.1,0.2,0.2c-0.1,3.3-0.2,6.6-0.2,9.9
	c0,44.1,12.3,85.3,33.7,120.4c21.7,35.5,52.7,64.8,89.6,84.3c32.3,17.1,69.1,26.8,108.2,26.8c127.8,0,231.5-103.6,231.5-231.5
	c0-124.7-98.7-226.4-222.2-231.3v-88c172.1,4.9,310.2,146,310.2,319.3c0,176.4-143,319.4-319.4,319.4S179.4,676.4,179.4,500
	c0-3.1,0.1-6.2,0.1-9.3h-0.1V116.3C69.7,208,0,345.9,0,500c0,276.1,223.9,500,500,500s500-223.9,500-500S776.1,0,500,0z"/>
</svg>
