<?xml version="1.0" encoding="iso-8859-1"?>
<!-- Generator: Adobe Illustrator 19.0.0, SVG Export Plug-In . SVG Version: 6.00 Build 0)  -->
<svg xmlns="http://www.w3.org/2000/svg" xmlns:xlink="http://www.w3.org/1999/xlink" version="1.1" id="Capa_1" x="0px" y="0px" viewBox="0 0 512 512" style="enable-background:new 0 0 512 512;" xml:space="preserve" width="512px" height="512px">
<g>
	<g>
		<path d="M496.47,232.454H256c-8.564,0-15.53,6.967-15.53,15.53v136.567c-0.99-0.051-1.98-0.102-2.959-0.172    c-4.131-0.309-7.735,2.82-8.031,6.961c-0.297,4.14,2.819,7.735,6.96,8.031c1.334,0.095,2.68,0.172,4.029,0.234v32.74    c0,8.564,6.967,15.53,15.53,15.53h87.675l-6.137,49.096h-8.394c-4.151,0-7.515,3.365-7.515,7.515c0,4.15,3.364,7.515,7.515,7.515    h95.186c4.151,0,7.515-3.365,7.515-7.515c0-4.15-3.364-7.515-7.515-7.515h-9.397l-6.137-49.096h87.675    c8.564,0,15.53-6.967,15.53-15.53v-184.36C512,239.421,505.033,232.454,496.47,232.454z M352.685,496.971l6.137-49.096h34.826    l6.137,49.096H352.685z M496.971,432.344c0,0.277-0.225,0.501-0.501,0.501H256c-0.276,0-0.501-0.224-0.501-0.501v-16.532h241.472    V432.344z M496.971,400.783H255.499V279.546h241.472V400.783z M496.971,264.517H255.499v-16.532c0-0.276,0.225-0.501,0.501-0.501    h240.47c0.276,0,0.501,0.224,0.501,0.501V264.517z" fill="#FFFFFF"/>
	</g>
</g>
<g>
	<g>
		<path d="M328.141,168.33h-24.548v-62.067c2.795,1.164,5.563,2.408,8.268,3.739c1.067,0.526,2.199,0.775,3.314,0.775    c2.773,0,5.44-1.541,6.747-4.196c1.834-3.723,0.302-8.228-3.422-10.062c-4.84-2.384-9.854-4.534-14.908-6.411V15.53    c0-8.564-6.967-15.53-15.53-15.53H47.593c-8.564,0-15.53,6.967-15.53,15.53v152.798H7.515c-4.151,0-7.515,3.365-7.515,7.515    v16.031c0,8.564,6.967,15.53,15.53,15.53h77.58c-1.242,1.085-2.14,2.58-2.452,4.329c-0.979,5.49-1.677,11.104-2.075,16.685    c-0.297,4.14,2.82,7.735,6.96,8.032c0.182,0.013,0.363,0.02,0.543,0.02c3.906,0,7.205-3.023,7.488-6.98    c0.362-5.059,0.995-10.145,1.882-15.117c0.479-2.687-0.541-5.289-2.453-6.968h217.123c8.564,0,15.53-6.967,15.53-15.53v-16.031    C335.656,171.694,332.292,168.33,328.141,168.33z M47.092,47.092h149.041c4.151,0,7.515-3.365,7.515-7.515    c0-4.15-3.364-7.515-7.515-7.515H47.092V15.53c0-0.277,0.225-0.501,0.501-0.501h240.47c0.276,0,0.501,0.224,0.501,0.501v16.532    h-56.36c-4.151,0-7.515,3.365-7.515,7.515c0,4.15,3.364,7.515,7.515,7.515h56.36v121.237H47.092V47.092z M320.626,191.875    c0,0.277-0.225,0.501-0.501,0.501H15.53c-0.276,0-0.501-0.224-0.501-0.501v-8.517h305.597V191.875z" fill="#FFFFFF"/>
	</g>
</g>
<g>
	<g>
		<path d="M207.356,378.975c-4.892-1.428-9.759-3.134-14.469-5.075c-3.837-1.581-8.23,0.25-9.81,4.087    c-1.581,3.837,0.248,8.229,4.086,9.81c5.203,2.143,10.582,4.029,15.984,5.605c0.702,0.205,1.411,0.303,2.108,0.303    c3.254,0,6.253-2.13,7.211-5.412C213.628,384.311,211.341,380.138,207.356,378.975z" fill="#FFFFFF"/>
	</g>
</g>
<g>
	<g>
		<path d="M165.959,359.292c-2.095-1.443-4.165-2.952-6.156-4.483c-0.16-0.123-0.326-0.232-0.492-0.341v-66.406    c0-8.564-6.967-15.53-15.53-15.53h-36.892c-0.955-4.158-1.742-8.388-2.326-12.615c-0.567-4.112-4.354-6.987-8.471-6.419    c-4.111,0.566-6.985,4.36-6.417,8.471c0.487,3.531,1.109,7.063,1.834,10.563H47.593c-8.564,0-15.53,6.967-15.53,15.53v160.313    c0,8.564,6.967,15.53,15.53,15.53h96.188c8.564,0,15.53-6.967,15.53-15.53v-75.781c0.776,0.26,1.578,0.4,2.378,0.4    c2.389,0,4.738-1.136,6.195-3.251C170.239,366.325,169.377,361.646,165.959,359.292z M144.282,448.376    c0,0.277-0.225,0.501-0.501,0.501H47.593c-0.276,0-0.501-0.224-0.501-0.501v-16.532h97.19V448.376z M144.282,416.814h-97.19    V311.609h97.19V416.814z M144.282,296.579h-97.19v-8.517c0-0.277,0.225-0.501,0.501-0.501h96.188c0.276,0,0.501,0.224,0.501,0.501    V296.579z" fill="#FFFFFF"/>
	</g>
</g>
<g>
	<g>
		<path d="M405.603,213.43c-0.921-5.511-2.148-11.034-3.646-16.417c-1.113-3.998-5.258-6.338-9.255-5.223    c-3.999,1.113-6.337,5.256-5.224,9.255c1.357,4.873,2.468,9.874,3.301,14.862c0.613,3.674,3.796,6.277,7.404,6.277    c0.411,0,0.828-0.034,1.247-0.104C403.523,221.395,406.288,217.523,405.603,213.43z" fill="#FFFFFF"/>
	</g>
</g>
<g>
	<g>
		<path d="M359.531,125.526c-4.002-3.901-8.252-7.631-12.633-11.088c-3.256-2.568-7.984-2.014-10.554,1.245    c-2.572,3.257-2.014,7.983,1.244,10.554c3.971,3.132,7.824,6.515,11.453,10.052c1.461,1.424,3.354,2.133,5.243,2.133    c1.956,0,3.91-0.758,5.383-2.269C362.565,133.181,362.504,128.423,359.531,125.526z" fill="#FFFFFF"/>
	</g>
</g>
<g>
	<g>
		<path d="M389.574,165.795c-2.594-4.943-5.482-9.804-8.584-14.45c-2.304-3.452-6.97-4.382-10.422-2.077    c-3.451,2.305-4.381,6.971-2.076,10.422c2.81,4.208,5.427,8.612,7.776,13.089c1.344,2.561,3.956,4.024,6.659,4.024    c1.177,0,2.372-0.278,3.486-0.862C390.088,174.012,391.503,169.47,389.574,165.795z" fill="#FFFFFF"/>
	</g>
</g>
<g>
</g>
<g>
</g>
<g>
</g>
<g>
</g>
<g>
</g>
<g>
</g>
<g>
</g>
<g>
</g>
<g>
</g>
<g>
</g>
<g>
</g>
<g>
</g>
<g>
</g>
<g>
</g>
<g>
</g>
</svg>
