<?xml version="1.0" encoding="utf-8"?>
<!-- Generator: Adobe Illustrator 22.0.1, SVG Export Plug-In . SVG Version: 6.00 Build 0)  -->
<svg version="1.1" id="Layer_1" xmlns="http://www.w3.org/2000/svg" xmlns:xlink="http://www.w3.org/1999/xlink" x="0px" y="0px"
	 viewBox="0 0 512 512" style="enable-background:new 0 0 512 512;" xml:space="preserve">
<style type="text/css">
	.st0{fill:#FFFFFF;}
</style>
<g>
	<g>
		<path class="st0" d="M258,8C121,8,10,119,10,256s111,248,248,248s248-111,248-248C505.9,119.1,394.9,8.1,258,8z M258,488
			C129.9,488,26,384.1,26,256S129.9,24,258,24s232,103.9,232,232C489.9,384.1,386.1,487.9,258,488z"/>
	</g>
</g>
<g>
	<g>
		<path class="st0" d="M374.6,135.7c-2.2-1.1-4.8-1.1-7,0v0l-152.3,73.9c-0.2,0.1-0.4,0.4-0.6,0.5c-1,0.7-1.9,1.6-2.6,2.6
			c-0.1,0.2-0.4,0.4-0.5,0.6l-73.9,152.3c-1.9,4-0.3,8.8,3.7,10.7c2.2,1.1,4.8,1.1,7,0l152.3-73.9c0.2-0.1,0.4-0.4,0.6-0.5
			c1-0.7,1.9-1.6,2.6-2.6c0.1-0.2,0.4-0.4,0.5-0.6l73.9-152.3C380.3,142.4,378.6,137.6,374.6,135.7z M162.1,351.9l59-121.5
			l62.5,62.5L162.1,351.9z M294.9,281.6l-62.5-62.5l121.4-59L294.9,281.6z"/>
	</g>
</g>
</svg>
